<svg width="68" height="68" viewBox="0 0 68 68" fill="none" xmlns="http://www.w3.org/2000/svg">
<path d="M37.3333 0.766602V7.49994C51.9666 9.29994 62.3333 22.5999 60.5333 37.2333C59 49.3666 49.4666 58.9999 37.3333 60.4333V67.0999C55.6666 65.2666 69 48.9999 67.1666 30.6666C65.6666 14.8333 53.1 2.33327 37.3333 0.766602ZM30.6666 0.866601C24.1666 1.49993 17.9666 3.99994 12.9 8.19994L17.6666 13.1333C21.4 10.1333 25.9 8.19993 30.6666 7.53327V0.866601ZM8.19998 12.8999C4.03216 17.9578 1.46732 24.1436 0.833313 30.6666H7.49998C8.13331 25.9333 9.99998 21.4333 12.9666 17.6666L8.19998 12.8999ZM45.6666 22.3333L29.4 38.5999L22.3333 31.5333L18.8 35.0666L29.4 45.6666L49.2 25.8666L45.6666 22.3333ZM0.866646 37.3333C1.53331 43.8666 4.09998 50.0333 8.23331 55.0999L12.9666 50.3333C10.0231 46.5653 8.14649 42.0753 7.53331 37.3333H0.866646ZM17.6666 55.2333L12.9 59.7999C17.9492 64.0089 24.1309 66.63 30.6666 67.3333V60.6666C25.9246 60.0534 21.4347 58.1768 17.6666 55.2333Z" fill="#735C2D"/>
</svg>
