<svg width="168" height="168" viewBox="0 0 168 168" fill="none" xmlns="http://www.w3.org/2000/svg">
<path fill-rule="evenodd" clip-rule="evenodd" d="M105.617 8.14177C99.5854 3.00183 91.9202 0.178711 83.9958 0.178711C76.0715 0.178711 68.4063 3.00183 62.375 8.14177L59.2417 10.8084C56.5732 13.0848 53.2546 14.4612 49.7583 14.7418L45.65 15.0751C37.7497 15.7038 30.332 19.1267 24.7272 24.73C19.1225 30.3332 15.6975 37.75 15.0667 45.6501L14.7417 49.7584C14.4635 53.2537 13.09 56.5722 10.8167 59.2418L8.14167 62.3751C2.99952 68.407 0.175056 76.0739 0.175056 84.0001C0.175056 91.9263 2.99952 99.5932 8.14167 105.625L10.8083 108.758C13.0847 111.427 14.4611 114.746 14.7417 118.242L15.075 122.35C15.7037 130.25 19.1266 137.668 24.7299 143.273C30.3331 148.878 37.7499 152.303 45.65 152.933L49.7583 153.258C53.2536 153.537 56.5721 154.91 59.2417 157.183L62.375 159.85C68.4069 164.992 76.0738 167.817 84 167.817C91.9262 167.817 99.5931 164.992 105.625 159.85L108.758 157.183C111.428 154.91 114.746 153.537 118.242 153.258L122.35 152.925C130.25 152.296 137.668 148.873 143.273 143.27C148.878 137.667 152.302 130.25 152.933 122.35L153.25 118.242C153.531 114.746 154.907 111.427 157.183 108.758L159.85 105.617C164.99 99.5855 167.813 91.9203 167.813 83.9959C167.813 76.0716 164.99 68.4064 159.85 62.3751L157.183 59.2418C154.907 56.5733 153.531 53.2547 153.25 49.7584L152.925 45.6501C152.296 37.7499 148.873 30.3321 143.27 24.7273C137.667 19.1226 130.25 15.6976 122.35 15.0668L118.242 14.7418C114.746 14.4636 111.428 13.0901 108.758 10.8168L105.617 8.15011V8.14177ZM73.1917 20.8334C76.207 18.2646 80.0388 16.8537 84 16.8537C87.9612 16.8537 91.793 18.2646 94.8083 20.8334L97.95 23.5084C103.288 28.0581 109.925 30.808 116.917 31.3668L121.025 31.7001C124.973 32.0162 128.679 33.7279 131.48 36.5285C134.281 39.3291 135.992 43.0355 136.308 46.9834L136.642 51.0918C137.2 58.0833 139.95 64.7204 144.5 70.0584L147.167 73.2001C149.736 76.2155 151.146 80.0472 151.146 84.0084C151.146 87.9697 149.736 91.8014 147.167 94.8168L144.5 97.9584C139.95 103.296 137.2 109.934 136.642 116.925L136.308 121.033C135.992 124.981 134.281 128.688 131.48 131.488C128.679 134.289 124.973 136.001 121.025 136.317L116.917 136.65C109.925 137.209 103.288 139.959 97.95 144.508L94.8083 147.175C91.793 149.744 87.9612 151.155 84 151.155C80.0388 151.155 76.207 149.744 73.1917 147.175L70.05 144.508C64.712 139.959 58.0749 137.209 51.0833 136.65L46.975 136.317C43.0255 136.003 39.3172 134.292 36.5149 131.491C33.7126 128.69 31.9997 124.983 31.6833 121.033L31.35 116.925C30.7936 109.935 28.0466 103.298 23.5 97.9584L20.8333 94.8168C18.2645 91.8014 16.8536 87.9697 16.8536 84.0084C16.8536 80.0472 18.2645 76.2155 20.8333 73.2001L23.5 70.0584C28.0496 64.7204 30.7996 58.0833 31.3583 51.0918L31.6917 46.9834C32.0059 43.034 33.7168 39.3256 36.5175 36.5233C39.3183 33.721 43.0257 32.0081 46.975 31.6918L51.0833 31.3668C58.0749 30.808 64.712 28.0581 70.05 23.5084L73.1917 20.8418V20.8334ZM114.892 64.9001C115.688 64.1314 116.322 63.2118 116.759 62.1951C117.196 61.1784 117.426 60.0849 117.435 58.9784C117.445 57.872 117.234 56.7746 116.815 55.7505C116.396 54.7264 115.777 53.7959 114.995 53.0135C114.213 52.231 113.282 51.6123 112.258 51.1933C111.234 50.7743 110.136 50.5634 109.03 50.573C107.924 50.5826 106.83 50.8125 105.813 51.2493C104.797 51.686 103.877 52.3209 103.108 53.1168L78.1083 78.1168L53.1083 103.117C52.3124 103.885 51.6776 104.805 51.2408 105.822C50.8041 106.838 50.5742 107.932 50.5646 109.038C50.555 110.145 50.7658 111.242 51.1848 112.266C51.6038 113.291 52.2226 114.221 53.005 115.003C53.7875 115.786 54.7179 116.405 55.7421 116.824C56.7662 117.243 57.8635 117.453 58.97 117.444C60.0765 117.434 61.17 117.204 62.1867 116.768C63.2034 116.331 64.1229 115.696 64.8917 114.9L114.892 64.9001ZM75.6667 63.1668C75.6667 66.482 74.3497 69.6614 72.0055 72.0056C69.6613 74.3498 66.4819 75.6668 63.1667 75.6668C59.8515 75.6668 56.672 74.3498 54.3278 72.0056C51.9836 69.6614 50.6667 66.482 50.6667 63.1668C50.6667 59.8516 51.9836 56.6721 54.3278 54.3279C56.672 51.9837 59.8515 50.6668 63.1667 50.6668C66.4819 50.6668 69.6613 51.9837 72.0055 54.3279C74.3497 56.6721 75.6667 59.8516 75.6667 63.1668ZM104.833 117.333C108.149 117.333 111.328 116.016 113.672 113.672C116.016 111.328 117.333 108.149 117.333 104.833C117.333 101.518 116.016 98.3388 113.672 95.9946C111.328 93.6504 108.149 92.3334 104.833 92.3334C101.518 92.3334 98.3387 93.6504 95.9945 95.9946C93.6503 98.3388 92.3333 101.518 92.3333 104.833C92.3333 108.149 93.6503 111.328 95.9945 113.672C98.3387 116.016 101.518 117.333 104.833 117.333Z" fill="#219653"/>
</svg>
